<?xml version="1.0" encoding="UTF-8" standalone="no"?>
<!-- Created with Inkscape (http://www.inkscape.org/) -->

<svg
   xmlns:dc="http://purl.org/dc/elements/1.1/"
   xmlns:cc="http://creativecommons.org/ns#"
   xmlns:rdf="http://www.w3.org/1999/02/22-rdf-syntax-ns#"
   xmlns:svg="http://www.w3.org/2000/svg"
   xmlns="http://www.w3.org/2000/svg"
   xmlns:sodipodi="http://sodipodi.sourceforge.net/DTD/sodipodi-0.dtd"
   xmlns:inkscape="http://www.inkscape.org/namespaces/inkscape"
   width="180"
   height="180"
   id="svg2"
   version="1.1"
   inkscape:version="0.48.5 r10040"
   sodipodi:docname="step-2-config.svg">
  <defs
     id="defs4" />
  <sodipodi:namedview
     id="base"
     pagecolor="#ffffff"
     bordercolor="#666666"
     borderopacity="1.0"
     inkscape:pageopacity="0.0"
     inkscape:pageshadow="2"
     inkscape:zoom="1"
     inkscape:cx="-236.88032"
     inkscape:cy="95.386593"
     inkscape:document-units="px"
     inkscape:current-layer="layer1"
     showgrid="false"
     fit-margin-top="0"
     fit-margin-left="0"
     fit-margin-right="0"
     fit-margin-bottom="0"
     inkscape:window-width="1920"
     inkscape:window-height="1017"
     inkscape:window-x="-8"
     inkscape:window-y="-8"
     inkscape:window-maximized="1" />
  <metadata
     id="metadata7">
    <rdf:RDF>
      <cc:Work
         rdf:about="">
        <dc:format>image/svg+xml</dc:format>
        <dc:type
           rdf:resource="http://purl.org/dc/dcmitype/StillImage" />
        <dc:title />
      </cc:Work>
    </rdf:RDF>
  </metadata>
  <g
     inkscape:label="Layer 1"
     inkscape:groupmode="layer"
     id="layer1"
     transform="translate(-169.53447,-292.54486)">
    <path
       style="fill:#a94300;fill-opacity:1;stroke:none"
       d="m 259.52453,292.54486 c -49.70544,0 -89.99006,40.28461 -89.99006,89.99006 0,49.70544 40.28462,90.00994 89.99006,90.00994 49.70544,0 90.00994,-40.3045 90.00994,-90.00994 0,-49.70545 -40.3045,-89.99006 -90.00994,-89.99006 z m 3.53994,34.54425 21.21975,0 0,6.1054 -21.21975,0 0,-6.1054 z m -28.27975,0.0199 21.21975,0 0,6.1054 7.06,0 0,98.66093 21.21975,0 0,6.1054 -21.21975,0 0,-6.1054 -7.06,0 0,-98.66093 -21.21975,0 0,-6.1054 z m 0,104.78621 21.21975,0 0,6.1054 -21.21975,0 0,-6.1054 z"
       id="path3016"
       inkscape:connector-curvature="0" />
  </g>
</svg>
