<?xml version="1.0" encoding="UTF-8" standalone="no"?>
<!-- Created with Inkscape (http://www.inkscape.org/) -->

<svg
   xmlns:dc="http://purl.org/dc/elements/1.1/"
   xmlns:cc="http://creativecommons.org/ns#"
   xmlns:rdf="http://www.w3.org/1999/02/22-rdf-syntax-ns#"
   xmlns:svg="http://www.w3.org/2000/svg"
   xmlns="http://www.w3.org/2000/svg"
   xmlns:sodipodi="http://sodipodi.sourceforge.net/DTD/sodipodi-0.dtd"
   xmlns:inkscape="http://www.inkscape.org/namespaces/inkscape"
   width="176.12505"
   height="161.81589"
   id="svg2"
   version="1.1"
   inkscape:version="0.48.5 r10040"
   sodipodi:docname="logo.svg">
  <defs
     id="defs4" />
  <sodipodi:namedview
     id="base"
     pagecolor="#ffffff"
     bordercolor="#666666"
     borderopacity="1.0"
     inkscape:pageopacity="0.0"
     inkscape:pageshadow="2"
     inkscape:zoom="1.4142136"
     inkscape:cx="-121.30172"
     inkscape:cy="100.05084"
     inkscape:document-units="px"
     inkscape:current-layer="layer1"
     showgrid="false"
     inkscape:window-width="1920"
     inkscape:window-height="1017"
     inkscape:window-x="-8"
     inkscape:window-y="-8"
     inkscape:window-maximized="1"
     fit-margin-top="0"
     fit-margin-left="0"
     fit-margin-right="0"
     fit-margin-bottom="0" />
  <metadata
     id="metadata7">
    <rdf:RDF>
      <cc:Work
         rdf:about="">
        <dc:format>image/svg+xml</dc:format>
        <dc:type
           rdf:resource="http://purl.org/dc/dcmitype/StillImage" />
        <dc:title />
      </cc:Work>
    </rdf:RDF>
  </metadata>
  <g
     inkscape:label="Layer 1"
     inkscape:groupmode="layer"
     id="layer1"
     transform="translate(-239.85179,-86.350451)">
    <g
       style="font-size:40px;font-style:normal;font-weight:normal;line-height:125%;letter-spacing:0px;word-spacing:0px;fill:#000000;fill-opacity:1;stroke:none;font-family:Sans"
       id="text2989"
       transform="translate(30.365973,0)">
      <path
         d="m 220.39031,236.68649 c 2.2733,2.56664 5.08659,3.91329 8.43989,4.03995 1.6408,0.0583 3.16911,-0.19833 4.58494,-0.76999 1.4158,-0.57166 2.71412,-1.44831 3.89495,-2.62997 2.36662,-2.40663 3.55327,-5.27325 3.55996,-8.59989 -0.007,-3.19994 -1.11334,-5.9599 -3.31996,-8.27989 -2.19999,-2.31995 -4.87995,-3.51993 -8.0399,-3.59995 -3.27996,-0.11331 -6.11992,1.03334 -8.51989,3.43995 -2.36663,2.36666 -3.55328,5.19328 -3.55995,8.47989 0,0.0242 0,0.0558 0,0.095 0,0.0392 0,0.0608 0,0.065 l 0,19.23975 2.95996,0 z m 15.03981,-13.99982 c 1.63996,1.79333 2.43995,3.88663 2.39997,6.27992 -0.02,1.21833 -0.25002,2.34165 -0.68999,3.36996 -0.44002,1.02832 -1.09001,1.97165 -1.94998,2.82996 -1.71333,1.71332 -3.76663,2.56664 -6.15992,2.55997 -2.35998,0.007 -4.35995,-0.84665 -5.99992,-2.55997 -0.82166,-0.85915 -1.44832,-1.8008 -1.87998,-2.82496 -0.43166,-1.02415 -0.65833,-2.1358 -0.67999,-3.33496 -0.0208,-1.2583 0.18083,-2.43162 0.60499,-3.51995 0.42416,-1.08831 1.07582,-2.10163 1.95498,-3.03996 0.89831,-0.93831 1.88163,-1.62163 2.94996,-2.04998 1.06831,-0.42831 2.23163,-0.61164 3.48995,-0.54999 1.17831,0.0409 2.26163,0.29918 3.24996,0.77499 0.98831,0.47585 1.89163,1.16417 2.70997,2.06497 z"
         style="font-variant:normal;font-stretch:normal;font-family:abeatbyKai;-inkscape-font-specification:abeatbyKai"
         id="path3069"
         inkscape:connector-curvature="0" />
      <path
         d="m 267.2363,228.76659 c -0.007,-3.19994 -1.11334,-5.9599 -3.31996,-8.27989 -1.10167,-1.1783 -2.32832,-2.07162 -3.67995,-2.67996 -1.35167,-0.60831 -2.81831,-0.94163 -4.39994,-0.99999 -3.28664,-0.11331 -6.11326,1.03334 -8.4799,3.43995 -1.18082,1.18167 -2.06914,2.48832 -2.66496,3.91995 -0.59583,1.43167 -0.89416,2.97831 -0.89499,4.63994 -0.007,3.19997 1.08665,5.95993 3.27996,8.2799 1.10165,1.15998 2.3283,2.03997 3.67995,2.63996 1.35164,0.6 2.81829,0.91999 4.39994,0.95999 1.6408,0.0583 3.16911,-0.19833 4.58494,-0.76999 1.4158,-0.57166 2.71412,-1.44831 3.89495,-2.62997 2.39995,-2.39996 3.59994,-5.23992 3.59996,-8.51989 z m -17.99977,6.11993 c -0.81833,-0.90082 -1.42165,-1.87914 -1.80998,-2.93497 -0.38833,-1.05581 -0.57166,-2.18413 -0.54999,-3.38495 0.0183,-1.21831 0.24166,-2.34163 0.66999,-3.36996 0.42833,-1.0283 1.07165,-1.97162 1.92998,-2.82996 0.85831,-0.86164 1.80163,-1.5083 2.82996,-1.93998 1.02831,-0.43164 2.15163,-0.6383 3.36996,-0.61999 2.31329,-0.007 4.28659,0.84668 5.91992,2.55997 1.64663,1.71332 2.51328,3.76663 2.59997,6.15992 0.0216,1.25832 -0.18169,2.43164 -0.61,3.51995 -0.42834,1.08833 -1.09167,2.10165 -1.98997,3.03996 -0.87917,0.93833 -1.85082,1.62165 -2.91496,2.04998 -1.06417,0.42833 -2.22582,0.61166 -3.48496,0.54999 -1.17833,-0.0392 -2.26164,-0.29083 -3.24996,-0.75499 -0.98832,-0.46416 -1.89164,-1.14581 -2.70996,-2.04497 z"
         style="font-variant:normal;font-stretch:normal;font-family:abeatbyKai;-inkscape-font-specification:abeatbyKai"
         id="path3071"
         inkscape:connector-curvature="0" />
      <path
         d="m 290.40072,227.16661 c -2e-5,-2.95327 -0.96001,-5.40657 -2.87997,-7.3599 -1.91999,-1.96662 -4.31995,-2.95327 -7.1999,-2.95996 -2.91331,0.007 -5.32661,0.99334 -7.23991,2.95996 -1.91998,1.95333 -2.87996,4.40663 -2.87996,7.3599 l 0,12.99984 3.07996,0 0,-13.31983 c -0.007,-1.91329 0.68665,-3.5666 2.07997,-4.95994 0.70165,-0.69914 1.46831,-1.22079 2.29997,-1.56498 0.83165,-0.34414 1.7183,-0.5158 2.65997,-0.51499 0.93831,-8.1e-4 1.81163,0.17085 2.61996,0.51499 0.80831,0.34419 1.56163,0.86584 2.25997,1.56498 1.40664,1.39334 2.11329,3.04665 2.11998,4.95994 l 0,13.31983 3.07996,0 z"
         style="font-variant:normal;font-stretch:normal;font-family:abeatbyKai;-inkscape-font-specification:abeatbyKai"
         id="path3073"
         inkscape:connector-curvature="0" />
      <path
         d="m 301.88212,238.12647 c -3.48663,0.007 -5.23327,-1.68664 -5.23993,-5.07993 l 0,-12.87984 5.23993,0 0,-2.83996 -5.23993,0 0,-7.9599 -3.07996,0 0,24.19969 c -0.007,4.71994 2.76662,7.07991 8.31989,7.07991 z"
         style="font-variant:normal;font-stretch:normal;font-family:abeatbyKai;-inkscape-font-specification:abeatbyKai"
         id="path3075"
         inkscape:connector-curvature="0" />
      <path
         d="m 328.01755,228.76659 c -0.007,-3.19994 -1.11334,-5.9599 -3.31996,-8.27989 -1.10167,-1.1783 -2.32832,-2.07162 -3.67995,-2.67996 -1.35167,-0.60831 -2.81831,-0.94163 -4.39994,-0.99999 -3.28664,-0.11331 -6.11326,1.03334 -8.4799,3.43995 -1.18082,1.18167 -2.06914,2.48832 -2.66496,3.91995 -0.59583,1.43167 -0.89416,2.97831 -0.89499,4.63994 -0.007,3.19997 1.08665,5.95993 3.27996,8.2799 1.10165,1.15998 2.3283,2.03997 3.67995,2.63996 1.35164,0.6 2.81829,0.91999 4.39994,0.95999 1.6408,0.0583 3.16911,-0.19833 4.58494,-0.76999 1.4158,-0.57166 2.71412,-1.44831 3.89495,-2.62997 2.39995,-2.39996 3.59994,-5.23992 3.59996,-8.51989 z m -17.99977,6.11993 c -0.81833,-0.90082 -1.42165,-1.87914 -1.80998,-2.93497 -0.38833,-1.05581 -0.57166,-2.18413 -0.54999,-3.38495 0.0183,-1.21831 0.24166,-2.34163 0.66999,-3.36996 0.42833,-1.0283 1.07165,-1.97162 1.92998,-2.82996 0.85831,-0.86164 1.80163,-1.5083 2.82996,-1.93998 1.02831,-0.43164 2.15163,-0.6383 3.36996,-0.61999 2.31329,-0.007 4.28659,0.84668 5.91992,2.55997 1.64663,1.71332 2.51328,3.76663 2.59997,6.15992 0.0216,1.25832 -0.18169,2.43164 -0.61,3.51995 -0.42834,1.08833 -1.09167,2.10165 -1.98997,3.03996 -0.87917,0.93833 -1.85082,1.62165 -2.91496,2.04998 -1.06417,0.42833 -2.22582,0.61166 -3.48496,0.54999 -1.17833,-0.0392 -2.26164,-0.29083 -3.24996,-0.75499 -0.98832,-0.46416 -1.89164,-1.14581 -2.70996,-2.04497 z"
         style="font-variant:normal;font-stretch:normal;font-family:abeatbyKai;-inkscape-font-specification:abeatbyKai"
         id="path3077"
         inkscape:connector-curvature="0" />
      <path
         d="m 354.50192,228.76659 c -0.007,-3.19994 -1.11334,-5.9599 -3.31995,-8.27989 -1.10168,-1.1783 -2.32833,-2.07162 -3.67996,-2.67996 -1.35166,-0.60831 -2.81831,-0.94163 -4.39994,-0.99999 -3.28663,-0.11331 -6.11326,1.03334 -8.47989,3.43995 -1.18082,1.18167 -2.06914,2.48832 -2.66497,3.91995 -0.59582,1.43167 -0.89415,2.97831 -0.89498,4.63994 -0.007,3.19997 1.08665,5.95993 3.27995,8.2799 1.10165,1.15998 2.3283,2.03997 3.67996,2.63996 1.35164,0.6 2.81828,0.91999 4.39994,0.95999 1.6408,0.0583 3.16911,-0.19833 4.58494,-0.76999 1.4158,-0.57166 2.71411,-1.44831 3.89495,-2.62997 2.39995,-2.39996 3.59993,-5.23992 3.59995,-8.51989 z m -17.99976,6.11993 c -0.81833,-0.90082 -1.42166,-1.87914 -1.80998,-2.93497 -0.38833,-1.05581 -0.57166,-2.18413 -0.54999,-3.38495 0.0183,-1.21831 0.24166,-2.34163 0.66999,-3.36996 0.42832,-1.0283 1.07165,-1.97162 1.92997,-2.82996 0.85832,-0.86164 1.80164,-1.5083 2.82997,-1.93998 1.02831,-0.43164 2.15162,-0.6383 3.36995,-0.61999 2.31329,-0.007 4.2866,0.84668 5.91993,2.55997 1.64662,1.71332 2.51328,3.76663 2.59996,6.15992 0.0217,1.25832 -0.18168,2.43164 -0.60999,3.51995 -0.42835,1.08833 -1.09167,2.10165 -1.98997,3.03996 -0.87918,0.93833 -1.85083,1.62165 -2.91497,2.04998 -1.06416,0.42833 -2.22581,0.61166 -3.48495,0.54999 -1.17833,-0.0392 -2.26165,-0.29083 -3.24996,-0.75499 -0.98833,-0.46416 -1.89165,-1.14581 -2.70996,-2.04497 z"
         style="font-variant:normal;font-stretch:normal;font-family:abeatbyKai;-inkscape-font-specification:abeatbyKai"
         id="path3079"
         inkscape:connector-curvature="0" />
      <path
         d="m 377.66634,227.16661 c -2e-5,-2.95327 -0.96001,-5.40657 -2.87996,-7.3599 -1.91999,-1.96662 -4.31996,-2.95327 -7.19991,-2.95996 -2.9133,0.007 -5.3266,0.99334 -7.23991,2.95996 -1.91997,1.95333 -2.87996,4.40663 -2.87996,7.3599 l 0,12.99984 3.07996,0 0,-13.31983 c -0.007,-1.91329 0.68666,-3.5666 2.07997,-4.95994 0.70166,-0.69914 1.46831,-1.22079 2.29997,-1.56498 0.83165,-0.34414 1.71831,-0.5158 2.65997,-0.51499 0.93831,-8.1e-4 1.81163,0.17085 2.61997,0.51499 0.80831,0.34419 1.56163,0.86584 2.25997,1.56498 1.40663,1.39334 2.11329,3.04665 2.11997,4.95994 l 0,13.31983 3.07996,0 z"
         style="font-variant:normal;font-stretch:normal;font-family:abeatbyKai;-inkscape-font-specification:abeatbyKai"
         id="path3081"
         inkscape:connector-curvature="0" />
    </g>
    <g
       id="g3058"
       transform="translate(8.4143431,26.162951)">
      <g
         id="g3044">
        <path
           style="font-size:144px;font-style:normal;font-weight:normal;line-height:125%;letter-spacing:-15.34999561px;word-spacing:0px;fill:#000000;fill-opacity:1;stroke:none;font-family:abeatbyKai;-inkscape-font-specification:abeatbyKai"
           d="m 268.78125,116.1875 0.0937,0.125 -37.4375,56.875 12.9375,0 31.5625,-47.8125 32.09375,47.8125 12.96875,0 -38.75,-57 -13.46875,0 z"
           id="path2995"
           inkscape:connector-curvature="0" />
        <path
           style="font-size:144px;font-style:normal;font-weight:normal;line-height:125%;letter-spacing:-15.34999561px;word-spacing:0px;fill:#000000;fill-opacity:1;stroke:none;font-family:abeatbyKai;-inkscape-font-specification:abeatbyKai"
           d="m 351.3125,116.1875 0.0937,0.125 -37.4375,56.875 12.9375,0 31.53125,-47.8125 32.125,47.8125 12.96875,0 -38.75,-57 -13.46875,0 z"
           id="path2997"
           inkscape:connector-curvature="0" />
        <path
           style="font-size:144px;font-style:normal;font-weight:normal;line-height:125%;letter-spacing:-15.34999561px;word-spacing:0px;fill:#000000;fill-opacity:1;stroke:none;font-family:abeatbyKai;-inkscape-font-specification:abeatbyKai"
           d="m 396.46875,116.1875 0,57 11.09375,0 0,-57 -11.09375,0 z"
           id="path2999"
           inkscape:connector-curvature="0" />
      </g>
      <g
         transform="matrix(1,0,0,-1,0,233.375)"
         id="g3049">
        <path
           inkscape:connector-curvature="0"
           id="path3051"
           d="m 268.78125,116.1875 0.0937,0.125 -37.4375,56.875 12.9375,0 31.5625,-47.8125 32.09375,47.8125 12.96875,0 -38.75,-57 -13.46875,0 z"
           style="font-size:144px;font-style:normal;font-weight:normal;line-height:125%;letter-spacing:-15.34999561px;word-spacing:0px;fill:#000000;fill-opacity:1;stroke:none;font-family:abeatbyKai;-inkscape-font-specification:abeatbyKai" />
        <path
           inkscape:connector-curvature="0"
           id="path3053"
           d="m 351.3125,116.1875 0.0937,0.125 -37.4375,56.875 12.9375,0 31.53125,-47.8125 32.125,47.8125 12.96875,0 -38.75,-57 -13.46875,0 z"
           style="font-size:144px;font-style:normal;font-weight:normal;line-height:125%;letter-spacing:-15.34999561px;word-spacing:0px;fill:#000000;fill-opacity:1;stroke:none;font-family:abeatbyKai;-inkscape-font-specification:abeatbyKai" />
        <path
           inkscape:connector-curvature="0"
           id="path3055"
           d="m 396.46875,116.1875 0,57 11.09375,0 0,-57 -11.09375,0 z"
           style="font-size:144px;font-style:normal;font-weight:normal;line-height:125%;letter-spacing:-15.34999561px;word-spacing:0px;fill:#000000;fill-opacity:1;stroke:none;font-family:abeatbyKai;-inkscape-font-specification:abeatbyKai" />
      </g>
    </g>
  </g>
</svg>
